<svg version="1.1" xmlns="http://www.w3.org/2000/svg" xmlns:xlink="http://www.w3.org/1999/xlink" width="952.5906007542512" height="612.8576819146142"><defs/><g><rect fill="#F8F8F9" stroke="none" x="0" y="0" width="952.5906007542512" height="612.8576819146142" transform="matrix(1 0 0 1 0 0)"/><g><path fill="#3382C9" stroke="none" paint-order="stroke fill markers" d=" M 387.563382060731 283.79873463957176 A 3 3 0 1 0 387.56338056073116 283.8017346390718"/><path fill="none" stroke="#3382C9" paint-order="fill stroke markers" d=" M 384.563382060731 283.79873463957176 C 284.563382060731 283.79873463957176 362.0416679382324 200.7987346395718 262.0416679382324 200.7987346395718" stroke-miterlimit="10" stroke-dasharray=""/><path fill="#3382C9" stroke="none" paint-order="stroke fill markers" d=" M 262.0416679382324 200.7987346395718 L 270.0416679382324 205.7987346395718 L 270.0416679382324 195.7987346395718 L 262.0416679382324 200.7987346395718"/><path fill="#3382C9" stroke="none" paint-order="stroke fill markers" d=" M 570.6135517193492 98.79873463957179 A 3 3 0 1 0 570.6135502193493 98.8017346390718"/><path fill="none" stroke="#3382C9" paint-order="fill stroke markers" d=" M 567.6135517193492 98.79873463957179 C 667.6135517193492 98.79873463957179 674.1675461842661 265.79873463957176 574.1675461842661 265.79873463957176" stroke-miterlimit="10" stroke-dasharray=""/><path fill="#3382C9" stroke="none" paint-order="stroke fill markers" d=" M 574.1675461842661 265.79873463957176 L 582.1675461842661 270.79873463957176 L 582.1675461842661 260.79873463957176 L 574.1675461842661 265.79873463957176"/><path fill="#3382C9" stroke="none" paint-order="stroke fill markers" d=" M 381.009387595814 116.79873463957179 A 3 3 0 1 0 381.0093860958142 116.80173463907178"/><path fill="none" stroke="#3382C9" paint-order="fill stroke markers" d=" M 378.009387595814 116.79873463957179 C 278.009387595814 116.79873463957179 362.0416679382324 200.7987346395718 262.0416679382324 200.7987346395718" stroke-miterlimit="10" stroke-dasharray=""/><path fill="#3382C9" stroke="none" paint-order="stroke fill markers" d=" M 262.0416679382324 200.7987346395718 L 270.0416679382324 205.7987346395718 L 270.0416679382324 195.7987346395718 L 262.0416679382324 200.7987346395718"/><path fill="#3382C9" stroke="none" paint-order="stroke fill markers" d=" M 695.5906007542513 247.7987346395718 A 3 3 0 1 0 695.5905992542515 247.8017346390718"/><path fill="none" stroke="#3382C9" paint-order="fill stroke markers" d=" M 692.5906007542513 247.7987346395718 C 592.5906007542513 247.7987346395718 674.1675461842661 265.79873463957176 574.1675461842661 265.79873463957176" stroke-miterlimit="10" stroke-dasharray=""/><path fill="#3382C9" stroke="none" paint-order="stroke fill markers" d=" M 574.1675461842661 265.79873463957176 L 582.1675461842661 270.79873463957176 L 582.1675461842661 260.79873463957176 L 574.1675461842661 265.79873463957176"/><path fill="#3382C9" stroke="none" paint-order="stroke fill markers" d=" M 576.0877274165683 417.79873463957176 A 3 3 0 1 0 576.0877259165685 417.8017346390718"/><path fill="none" stroke="#3382C9" paint-order="fill stroke markers" d=" M 573.0877274165683 417.79873463957176 C 673.0877274165683 417.79873463957176 592.5906007542513 247.7987346395718 692.5906007542513 247.7987346395718" stroke-miterlimit="10" stroke-dasharray=""/><path fill="#3382C9" stroke="none" paint-order="stroke fill markers" d=" M 692.5906007542513 247.7987346395718 L 684.5906007542513 252.7987346395718 L 684.5906007542513 242.7987346395718 L 692.5906007542513 247.7987346395718"/><path fill="#3382C9" stroke="none" paint-order="stroke fill markers" d=" M 386.48356329303317 489.79873463957176 A 3 3 0 1 0 386.48356179303335 489.8017346390718"/><path fill="none" stroke="#3382C9" paint-order="fill stroke markers" d=" M 383.48356329303317 489.79873463957176 C 283.48356329303317 489.79873463957176 362.0416679382324 200.7987346395718 262.0416679382324 200.7987346395718" stroke-miterlimit="10" stroke-dasharray=""/><path fill="#3382C9" stroke="none" paint-order="stroke fill markers" d=" M 262.0416679382324 200.7987346395718 L 270.0416679382324 205.7987346395718 L 270.0416679382324 195.7987346395718 L 262.0416679382324 200.7987346395718"/><rect fill="#fff" stroke="none" x="231.5879113024189" y="-16.139890969416783" width="202.04166793823242" height="192" transform="matrix(1 0 0 1 -171.5879113024189 177.7987346395718)"/><rect fill="#3382C9" stroke="none" x="231.5879113024189" y="-16.139890969416783" width="202.04166793823242" height="30" transform="matrix(1 0 0 1 -171.5879113024189 177.7987346395718)"/><text fill="#fff" stroke="none" font-family="Roboto, &quot;Helvetica Neue&quot;, Arial, sans-serif" font-size="12px" font-style="normal" font-weight="bold" text-decoration="undefined" x="243.5879113024189" y="-7.139890969416783" text-anchor="start" dominant-baseline="text-before-edge" transform="matrix(1 0 0 1 -171.5879113024189 177.7987346395718)">users</text><rect fill="#F8F8F9" stroke="none" x="231.5879113024189" y="13.860109030583217" width="202.04166793823242" height="18" transform="matrix(1 0 0 1 -171.5879113024189 177.7987346395718)"/><text fill="#555" stroke="none" font-family="Roboto, &quot;Helvetica Neue&quot;, Arial, sans-serif" font-size="12px" font-style="normal" font-weight="bold" text-decoration="undefined" x="385.7545792406513" y="16.860109030583217" text-anchor="start" dominant-baseline="text-before-edge" transform="matrix(1 0 0 1 -171.5879113024189 177.7987346395718)">integer</text><text fill="#555" stroke="none" font-family="Roboto, &quot;Helvetica Neue&quot;, Arial, sans-serif" font-size="12px" font-style="normal" font-weight="bold" text-decoration="undefined" x="243.5879113024189" y="16.860109030583217" text-anchor="start" dominant-baseline="text-before-edge" transform="matrix(1 0 0 1 -171.5879113024189 177.7987346395718)">id</text><path fill="none" stroke="#eee" paint-order="fill stroke markers" d=" M 60 209.65884367015502 L 262.0416679382324 209.65884367015502" stroke-miterlimit="10" stroke-dasharray=""/><rect fill="#F8F8F9" stroke="none" x="231.5879113024189" y="31.860109030583217" width="202.04166793823242" height="18" transform="matrix(1 0 0 1 -171.5879113024189 177.7987346395718)"/><text fill="#555" stroke="none" font-family="Roboto, &quot;Helvetica Neue&quot;, Arial, sans-serif" font-size="12px" font-style="normal" font-weight="normal" text-decoration="undefined" x="385.0254113024189" y="34.86010903058322" text-anchor="start" dominant-baseline="text-before-edge" transform="matrix(1 0 0 1 -171.5879113024189 177.7987346395718)">varchar</text><text fill="#555" stroke="none" font-family="Roboto, &quot;Helvetica Neue&quot;, Arial, sans-serif" font-size="12px" font-style="normal" font-weight="normal" text-decoration="undefined" x="243.5879113024189" y="34.86010903058322" text-anchor="start" dominant-baseline="text-before-edge" transform="matrix(1 0 0 1 -171.5879113024189 177.7987346395718)">username</text><path fill="none" stroke="#eee" paint-order="fill stroke markers" d=" M 60 227.65884367015502 L 262.0416679382324 227.65884367015502" stroke-miterlimit="10" stroke-dasharray=""/><rect fill="#F8F8F9" stroke="none" x="231.5879113024189" y="49.86010903058322" width="202.04166793823242" height="18" transform="matrix(1 0 0 1 -171.5879113024189 177.7987346395718)"/><text fill="#555" stroke="none" font-family="Roboto, &quot;Helvetica Neue&quot;, Arial, sans-serif" font-size="12px" font-style="normal" font-weight="normal" text-decoration="undefined" x="385.0254113024189" y="52.86010903058322" text-anchor="start" dominant-baseline="text-before-edge" transform="matrix(1 0 0 1 -171.5879113024189 177.7987346395718)">varchar</text><text fill="#555" stroke="none" font-family="Roboto, &quot;Helvetica Neue&quot;, Arial, sans-serif" font-size="12px" font-style="normal" font-weight="normal" text-decoration="undefined" x="243.5879113024189" y="52.86010903058322" text-anchor="start" dominant-baseline="text-before-edge" transform="matrix(1 0 0 1 -171.5879113024189 177.7987346395718)">role</text><path fill="none" stroke="#eee" paint-order="fill stroke markers" d=" M 60 245.65884367015502 L 262.0416679382324 245.65884367015502" stroke-miterlimit="10" stroke-dasharray=""/><rect fill="#F8F8F9" stroke="none" x="231.5879113024189" y="67.86010903058322" width="202.04166793823242" height="18" transform="matrix(1 0 0 1 -171.5879113024189 177.7987346395718)"/><text fill="#555" stroke="none" font-family="Roboto, &quot;Helvetica Neue&quot;, Arial, sans-serif" font-size="12px" font-style="normal" font-weight="normal" text-decoration="undefined" x="385.0254113024189" y="70.86010903058322" text-anchor="start" dominant-baseline="text-before-edge" transform="matrix(1 0 0 1 -171.5879113024189 177.7987346395718)">varchar</text><text fill="#555" stroke="none" font-family="Roboto, &quot;Helvetica Neue&quot;, Arial, sans-serif" font-size="12px" font-style="normal" font-weight="normal" text-decoration="undefined" x="243.5879113024189" y="70.86010903058322" text-anchor="start" dominant-baseline="text-before-edge" transform="matrix(1 0 0 1 -171.5879113024189 177.7987346395718)">email</text><path fill="none" stroke="#eee" paint-order="fill stroke markers" d=" M 60 263.658843670155 L 262.0416679382324 263.658843670155" stroke-miterlimit="10" stroke-dasharray=""/><rect fill="#F8F8F9" stroke="none" x="231.5879113024189" y="85.86010903058322" width="202.04166793823242" height="18" transform="matrix(1 0 0 1 -171.5879113024189 177.7987346395718)"/><text fill="#555" stroke="none" font-family="Roboto, &quot;Helvetica Neue&quot;, Arial, sans-serif" font-size="12px" font-style="normal" font-weight="normal" text-decoration="undefined" x="400.3170792406513" y="88.86010903058322" text-anchor="start" dominant-baseline="text-before-edge" transform="matrix(1 0 0 1 -171.5879113024189 177.7987346395718)">time</text><text fill="#555" stroke="none" font-family="Roboto, &quot;Helvetica Neue&quot;, Arial, sans-serif" font-size="12px" font-style="normal" font-weight="normal" text-decoration="undefined" x="243.5879113024189" y="88.86010903058322" text-anchor="start" dominant-baseline="text-before-edge" transform="matrix(1 0 0 1 -171.5879113024189 177.7987346395718)">email_verified_at</text><path fill="none" stroke="#eee" paint-order="fill stroke markers" d=" M 60 281.658843670155 L 262.0416679382324 281.658843670155" stroke-miterlimit="10" stroke-dasharray=""/><rect fill="#F8F8F9" stroke="none" x="231.5879113024189" y="103.86010903058322" width="202.04166793823242" height="18" transform="matrix(1 0 0 1 -171.5879113024189 177.7987346395718)"/><text fill="#555" stroke="none" font-family="Roboto, &quot;Helvetica Neue&quot;, Arial, sans-serif" font-size="12px" font-style="normal" font-weight="normal" text-decoration="undefined" x="385.0254113024189" y="106.86010903058322" text-anchor="start" dominant-baseline="text-before-edge" transform="matrix(1 0 0 1 -171.5879113024189 177.7987346395718)">varchar</text><text fill="#555" stroke="none" font-family="Roboto, &quot;Helvetica Neue&quot;, Arial, sans-serif" font-size="12px" font-style="normal" font-weight="normal" text-decoration="undefined" x="243.5879113024189" y="106.86010903058322" text-anchor="start" dominant-baseline="text-before-edge" transform="matrix(1 0 0 1 -171.5879113024189 177.7987346395718)">password</text><path fill="none" stroke="#eee" paint-order="fill stroke markers" d=" M 60 299.658843670155 L 262.0416679382324 299.658843670155" stroke-miterlimit="10" stroke-dasharray=""/><rect fill="#F8F8F9" stroke="none" x="231.5879113024189" y="121.86010903058322" width="202.04166793823242" height="18" transform="matrix(1 0 0 1 -171.5879113024189 177.7987346395718)"/><text fill="#555" stroke="none" font-family="Roboto, &quot;Helvetica Neue&quot;, Arial, sans-serif" font-size="12px" font-style="normal" font-weight="normal" text-decoration="undefined" x="385.0254113024189" y="124.86010903058322" text-anchor="start" dominant-baseline="text-before-edge" transform="matrix(1 0 0 1 -171.5879113024189 177.7987346395718)">varchar</text><text fill="#555" stroke="none" font-family="Roboto, &quot;Helvetica Neue&quot;, Arial, sans-serif" font-size="12px" font-style="normal" font-weight="normal" text-decoration="undefined" x="243.5879113024189" y="124.86010903058322" text-anchor="start" dominant-baseline="text-before-edge" transform="matrix(1 0 0 1 -171.5879113024189 177.7987346395718)">remember_token</text><path fill="none" stroke="#eee" paint-order="fill stroke markers" d=" M 60 317.65884367015497 L 262.0416679382324 317.65884367015497" stroke-miterlimit="10" stroke-dasharray=""/><rect fill="#F8F8F9" stroke="none" x="231.5879113024189" y="139.8601090305832" width="202.04166793823242" height="18" transform="matrix(1 0 0 1 -171.5879113024189 177.7987346395718)"/><text fill="#555" stroke="none" font-family="Roboto, &quot;Helvetica Neue&quot;, Arial, sans-serif" font-size="12px" font-style="normal" font-weight="normal" text-decoration="undefined" x="366.29624336418647" y="142.8601090305832" text-anchor="start" dominant-baseline="text-before-edge" transform="matrix(1 0 0 1 -171.5879113024189 177.7987346395718)">timestamp</text><text fill="#555" stroke="none" font-family="Roboto, &quot;Helvetica Neue&quot;, Arial, sans-serif" font-size="12px" font-style="normal" font-weight="normal" text-decoration="undefined" x="243.5879113024189" y="142.8601090305832" text-anchor="start" dominant-baseline="text-before-edge" transform="matrix(1 0 0 1 -171.5879113024189 177.7987346395718)">created_at</text><path fill="none" stroke="#eee" paint-order="fill stroke markers" d=" M 60 335.65884367015497 L 262.0416679382324 335.65884367015497" stroke-miterlimit="10" stroke-dasharray=""/><rect fill="#F8F8F9" stroke="none" x="231.5879113024189" y="157.8601090305832" width="202.04166793823242" height="18" transform="matrix(1 0 0 1 -171.5879113024189 177.7987346395718)"/><text fill="#555" stroke="none" font-family="Roboto, &quot;Helvetica Neue&quot;, Arial, sans-serif" font-size="12px" font-style="normal" font-weight="normal" text-decoration="undefined" x="366.29624336418647" y="160.8601090305832" text-anchor="start" dominant-baseline="text-before-edge" transform="matrix(1 0 0 1 -171.5879113024189 177.7987346395718)">timestamp</text><text fill="#555" stroke="none" font-family="Roboto, &quot;Helvetica Neue&quot;, Arial, sans-serif" font-size="12px" font-style="normal" font-weight="normal" text-decoration="undefined" x="243.5879113024189" y="160.8601090305832" text-anchor="start" dominant-baseline="text-before-edge" transform="matrix(1 0 0 1 -171.5879113024189 177.7987346395718)">updated_at</text><path fill="none" stroke="#eee" paint-order="fill stroke markers" d=" M 60 353.65884367015497 L 262.0416679382324 353.65884367015497" stroke-miterlimit="10" stroke-dasharray=""/><rect fill="#fff" stroke="none" x="556.1512933631499" y="48.72813308677737" width="189.60416412353516" height="120" transform="matrix(1 0 0 1 -171.5879113024189 177.7987346395718)"/><rect fill="#3382C9" stroke="none" x="556.1512933631499" y="48.72813308677737" width="189.60416412353516" height="30" transform="matrix(1 0 0 1 -171.5879113024189 177.7987346395718)"/><text fill="#fff" stroke="none" font-family="Roboto, &quot;Helvetica Neue&quot;, Arial, sans-serif" font-size="12px" font-style="normal" font-weight="bold" text-decoration="undefined" x="568.1512933631499" y="57.72813308677737" text-anchor="start" dominant-baseline="text-before-edge" transform="matrix(1 0 0 1 -171.5879113024189 177.7987346395718)">workspaces</text><rect fill="#F8F8F9" stroke="none" x="556.1512933631499" y="78.72813308677738" width="189.60416412353516" height="18" transform="matrix(1 0 0 1 -171.5879113024189 177.7987346395718)"/><text fill="#555" stroke="none" font-family="Roboto, &quot;Helvetica Neue&quot;, Arial, sans-serif" font-size="12px" font-style="normal" font-weight="bold" text-decoration="undefined" x="697.880457486685" y="81.72813308677738" text-anchor="start" dominant-baseline="text-before-edge" transform="matrix(1 0 0 1 -171.5879113024189 177.7987346395718)">integer</text><text fill="#555" stroke="none" font-family="Roboto, &quot;Helvetica Neue&quot;, Arial, sans-serif" font-size="12px" font-style="normal" font-weight="bold" text-decoration="undefined" x="568.1512933631499" y="81.72813308677738" text-anchor="start" dominant-baseline="text-before-edge" transform="matrix(1 0 0 1 -171.5879113024189 177.7987346395718)">id</text><path fill="none" stroke="#eee" paint-order="fill stroke markers" d=" M 384.563382060731 274.52686772634917 L 574.1675461842661 274.52686772634917" stroke-miterlimit="10" stroke-dasharray=""/><rect fill="#F8F8F9" stroke="none" x="556.1512933631499" y="96.72813308677738" width="189.60416412353516" height="18" transform="matrix(1 0 0 1 -171.5879113024189 177.7987346395718)"/><text fill="#555" stroke="none" font-family="Roboto, &quot;Helvetica Neue&quot;, Arial, sans-serif" font-size="12px" font-style="normal" font-weight="normal" text-decoration="undefined" x="697.1512895484526" y="99.72813308677738" text-anchor="start" dominant-baseline="text-before-edge" transform="matrix(1 0 0 1 -171.5879113024189 177.7987346395718)">varchar</text><text fill="#555" stroke="none" font-family="Roboto, &quot;Helvetica Neue&quot;, Arial, sans-serif" font-size="12px" font-style="normal" font-weight="normal" text-decoration="undefined" x="568.1512933631499" y="99.72813308677738" text-anchor="start" dominant-baseline="text-before-edge" transform="matrix(1 0 0 1 -171.5879113024189 177.7987346395718)">name</text><path fill="none" stroke="#eee" paint-order="fill stroke markers" d=" M 384.563382060731 292.52686772634917 L 574.1675461842661 292.52686772634917" stroke-miterlimit="10" stroke-dasharray=""/><rect fill="#F8F8F9" stroke="none" x="556.1512933631499" y="114.72813308677738" width="189.60416412353516" height="18" transform="matrix(1 0 0 1 -171.5879113024189 177.7987346395718)"/><text fill="#555" stroke="none" font-family="Roboto, &quot;Helvetica Neue&quot;, Arial, sans-serif" font-size="12px" font-style="normal" font-weight="normal" text-decoration="undefined" x="699.8596254249175" y="117.72813308677738" text-anchor="start" dominant-baseline="text-before-edge" transform="matrix(1 0 0 1 -171.5879113024189 177.7987346395718)">integer</text><text fill="#555" stroke="none" font-family="Roboto, &quot;Helvetica Neue&quot;, Arial, sans-serif" font-size="12px" font-style="normal" font-weight="normal" text-decoration="undefined" x="568.1512933631499" y="117.72813308677738" text-anchor="start" dominant-baseline="text-before-edge" transform="matrix(1 0 0 1 -171.5879113024189 177.7987346395718)">owner_id</text><path fill="none" stroke="#eee" paint-order="fill stroke markers" d=" M 384.563382060731 310.52686772634917 L 574.1675461842661 310.52686772634917" stroke-miterlimit="10" stroke-dasharray=""/><rect fill="#F8F8F9" stroke="none" x="556.1512933631499" y="132.72813308677738" width="189.60416412353516" height="18" transform="matrix(1 0 0 1 -171.5879113024189 177.7987346395718)"/><text fill="#555" stroke="none" font-family="Roboto, &quot;Helvetica Neue&quot;, Arial, sans-serif" font-size="12px" font-style="normal" font-weight="normal" text-decoration="undefined" x="678.4221216102202" y="135.72813308677738" text-anchor="start" dominant-baseline="text-before-edge" transform="matrix(1 0 0 1 -171.5879113024189 177.7987346395718)">timestamp</text><text fill="#555" stroke="none" font-family="Roboto, &quot;Helvetica Neue&quot;, Arial, sans-serif" font-size="12px" font-style="normal" font-weight="normal" text-decoration="undefined" x="568.1512933631499" y="135.72813308677738" text-anchor="start" dominant-baseline="text-before-edge" transform="matrix(1 0 0 1 -171.5879113024189 177.7987346395718)">created_at</text><path fill="none" stroke="#eee" paint-order="fill stroke markers" d=" M 384.563382060731 328.52686772634917 L 574.1675461842661 328.52686772634917" stroke-miterlimit="10" stroke-dasharray=""/><rect fill="#F8F8F9" stroke="none" x="556.1512933631499" y="150.72813308677738" width="189.60416412353516" height="18" transform="matrix(1 0 0 1 -171.5879113024189 177.7987346395718)"/><text fill="#555" stroke="none" font-family="Roboto, &quot;Helvetica Neue&quot;, Arial, sans-serif" font-size="12px" font-style="normal" font-weight="normal" text-decoration="undefined" x="678.4221216102202" y="153.72813308677738" text-anchor="start" dominant-baseline="text-before-edge" transform="matrix(1 0 0 1 -171.5879113024189 177.7987346395718)">timestamp</text><text fill="#555" stroke="none" font-family="Roboto, &quot;Helvetica Neue&quot;, Arial, sans-serif" font-size="12px" font-style="normal" font-weight="normal" text-decoration="undefined" x="568.1512933631499" y="153.72813308677738" text-anchor="start" dominant-baseline="text-before-edge" transform="matrix(1 0 0 1 -171.5879113024189 177.7987346395718)">updated_at</text><path fill="none" stroke="#eee" paint-order="fill stroke markers" d=" M 384.563382060731 346.52686772634917 L 574.1675461842661 346.52686772634917" stroke-miterlimit="10" stroke-dasharray=""/><rect fill="#fff" stroke="none" x="549.5972988982329" y="-117.79873463957179" width="189.60416412353516" height="138" transform="matrix(1 0 0 1 -171.5879113024189 177.7987346395718)"/><rect fill="#3382C9" stroke="none" x="549.5972988982329" y="-117.79873463957179" width="189.60416412353516" height="30" transform="matrix(1 0 0 1 -171.5879113024189 177.7987346395718)"/><text fill="#fff" stroke="none" font-family="Roboto, &quot;Helvetica Neue&quot;, Arial, sans-serif" font-size="12px" font-style="normal" font-weight="bold" text-decoration="undefined" x="561.5972988982329" y="-108.79873463957179" text-anchor="start" dominant-baseline="text-before-edge" transform="matrix(1 0 0 1 -171.5879113024189 177.7987346395718)">workspace_members</text><rect fill="#F8F8F9" stroke="none" x="549.5972988982329" y="-87.79873463957179" width="189.60416412353516" height="18" transform="matrix(1 0 0 1 -171.5879113024189 177.7987346395718)"/><text fill="#555" stroke="none" font-family="Roboto, &quot;Helvetica Neue&quot;, Arial, sans-serif" font-size="12px" font-style="normal" font-weight="bold" text-decoration="undefined" x="691.3264630217681" y="-84.79873463957179" text-anchor="start" dominant-baseline="text-before-edge" transform="matrix(1 0 0 1 -171.5879113024189 177.7987346395718)">integer</text><text fill="#555" stroke="none" font-family="Roboto, &quot;Helvetica Neue&quot;, Arial, sans-serif" font-size="12px" font-style="normal" font-weight="bold" text-decoration="undefined" x="561.5972988982329" y="-84.79873463957179" text-anchor="start" dominant-baseline="text-before-edge" transform="matrix(1 0 0 1 -171.5879113024189 177.7987346395718)">id</text><path fill="none" stroke="#eee" paint-order="fill stroke markers" d=" M 378.009387595814 108 L 567.6135517193492 108" stroke-miterlimit="10" stroke-dasharray=""/><rect fill="#F8F8F9" stroke="none" x="549.5972988982329" y="-69.79873463957179" width="189.60416412353516" height="18" transform="matrix(1 0 0 1 -171.5879113024189 177.7987346395718)"/><text fill="#555" stroke="none" font-family="Roboto, &quot;Helvetica Neue&quot;, Arial, sans-serif" font-size="12px" font-style="normal" font-weight="normal" text-decoration="undefined" x="693.3056309600005" y="-66.79873463957179" text-anchor="start" dominant-baseline="text-before-edge" transform="matrix(1 0 0 1 -171.5879113024189 177.7987346395718)">integer</text><text fill="#555" stroke="none" font-family="Roboto, &quot;Helvetica Neue&quot;, Arial, sans-serif" font-size="12px" font-style="normal" font-weight="normal" text-decoration="undefined" x="561.5972988982329" y="-66.79873463957179" text-anchor="start" dominant-baseline="text-before-edge" transform="matrix(1 0 0 1 -171.5879113024189 177.7987346395718)">workspace_id</text><path fill="none" stroke="#eee" paint-order="fill stroke markers" d=" M 378.009387595814 126 L 567.6135517193492 126" stroke-miterlimit="10" stroke-dasharray=""/><rect fill="#F8F8F9" stroke="none" x="549.5972988982329" y="-51.79873463957179" width="189.60416412353516" height="18" transform="matrix(1 0 0 1 -171.5879113024189 177.7987346395718)"/><text fill="#555" stroke="none" font-family="Roboto, &quot;Helvetica Neue&quot;, Arial, sans-serif" font-size="12px" font-style="normal" font-weight="normal" text-decoration="undefined" x="693.3056309600005" y="-48.79873463957179" text-anchor="start" dominant-baseline="text-before-edge" transform="matrix(1 0 0 1 -171.5879113024189 177.7987346395718)">integer</text><text fill="#555" stroke="none" font-family="Roboto, &quot;Helvetica Neue&quot;, Arial, sans-serif" font-size="12px" font-style="normal" font-weight="normal" text-decoration="undefined" x="561.5972988982329" y="-48.79873463957179" text-anchor="start" dominant-baseline="text-before-edge" transform="matrix(1 0 0 1 -171.5879113024189 177.7987346395718)">user_id</text><path fill="none" stroke="#eee" paint-order="fill stroke markers" d=" M 378.009387595814 144 L 567.6135517193492 144" stroke-miterlimit="10" stroke-dasharray=""/><rect fill="#F8F8F9" stroke="none" x="549.5972988982329" y="-33.79873463957179" width="189.60416412353516" height="18" transform="matrix(1 0 0 1 -171.5879113024189 177.7987346395718)"/><text fill="#555" stroke="none" font-family="Roboto, &quot;Helvetica Neue&quot;, Arial, sans-serif" font-size="12px" font-style="normal" font-weight="normal" text-decoration="undefined" x="690.5972950835356" y="-30.79873463957179" text-anchor="start" dominant-baseline="text-before-edge" transform="matrix(1 0 0 1 -171.5879113024189 177.7987346395718)">varchar</text><text fill="#555" stroke="none" font-family="Roboto, &quot;Helvetica Neue&quot;, Arial, sans-serif" font-size="12px" font-style="normal" font-weight="normal" text-decoration="undefined" x="561.5972988982329" y="-30.79873463957179" text-anchor="start" dominant-baseline="text-before-edge" transform="matrix(1 0 0 1 -171.5879113024189 177.7987346395718)">role</text><path fill="none" stroke="#eee" paint-order="fill stroke markers" d=" M 378.009387595814 162 L 567.6135517193492 162" stroke-miterlimit="10" stroke-dasharray=""/><rect fill="#F8F8F9" stroke="none" x="549.5972988982329" y="-15.79873463957179" width="189.60416412353516" height="18" transform="matrix(1 0 0 1 -171.5879113024189 177.7987346395718)"/><text fill="#555" stroke="none" font-family="Roboto, &quot;Helvetica Neue&quot;, Arial, sans-serif" font-size="12px" font-style="normal" font-weight="normal" text-decoration="undefined" x="671.8681271453032" y="-12.79873463957179" text-anchor="start" dominant-baseline="text-before-edge" transform="matrix(1 0 0 1 -171.5879113024189 177.7987346395718)">timestamp</text><text fill="#555" stroke="none" font-family="Roboto, &quot;Helvetica Neue&quot;, Arial, sans-serif" font-size="12px" font-style="normal" font-weight="normal" text-decoration="undefined" x="561.5972988982329" y="-12.79873463957179" text-anchor="start" dominant-baseline="text-before-edge" transform="matrix(1 0 0 1 -171.5879113024189 177.7987346395718)">created_at</text><path fill="none" stroke="#eee" paint-order="fill stroke markers" d=" M 378.009387595814 180 L 567.6135517193492 180" stroke-miterlimit="10" stroke-dasharray=""/><rect fill="#F8F8F9" stroke="none" x="549.5972988982329" y="2.2012653604282093" width="189.60416412353516" height="18" transform="matrix(1 0 0 1 -171.5879113024189 177.7987346395718)"/><text fill="#555" stroke="none" font-family="Roboto, &quot;Helvetica Neue&quot;, Arial, sans-serif" font-size="12px" font-style="normal" font-weight="normal" text-decoration="undefined" x="671.8681271453032" y="5.201265360428209" text-anchor="start" dominant-baseline="text-before-edge" transform="matrix(1 0 0 1 -171.5879113024189 177.7987346395718)">timestamp</text><text fill="#555" stroke="none" font-family="Roboto, &quot;Helvetica Neue&quot;, Arial, sans-serif" font-size="12px" font-style="normal" font-weight="normal" text-decoration="undefined" x="561.5972988982329" y="5.201265360428209" text-anchor="start" dominant-baseline="text-before-edge" transform="matrix(1 0 0 1 -171.5879113024189 177.7987346395718)">updated_at</text><path fill="none" stroke="#eee" paint-order="fill stroke markers" d=" M 378.009387595814 198 L 567.6135517193492 198" stroke-miterlimit="10" stroke-dasharray=""/><rect fill="#fff" stroke="none" x="864.1785120566702" y="30.981742832809147" width="189.60416412353516" height="138" transform="matrix(1 0 0 1 -171.5879113024189 177.7987346395718)"/><rect fill="#3382C9" stroke="none" x="864.1785120566702" y="30.981742832809147" width="189.60416412353516" height="30" transform="matrix(1 0 0 1 -171.5879113024189 177.7987346395718)"/><text fill="#fff" stroke="none" font-family="Roboto, &quot;Helvetica Neue&quot;, Arial, sans-serif" font-size="12px" font-style="normal" font-weight="bold" text-decoration="undefined" x="876.1785120566702" y="39.98174283280915" text-anchor="start" dominant-baseline="text-before-edge" transform="matrix(1 0 0 1 -171.5879113024189 177.7987346395718)">columns</text><rect fill="#F8F8F9" stroke="none" x="864.1785120566702" y="60.98174283280915" width="189.60416412353516" height="18" transform="matrix(1 0 0 1 -171.5879113024189 177.7987346395718)"/><text fill="#555" stroke="none" font-family="Roboto, &quot;Helvetica Neue&quot;, Arial, sans-serif" font-size="12px" font-style="normal" font-weight="bold" text-decoration="undefined" x="1005.9076761802053" y="63.98174283280915" text-anchor="start" dominant-baseline="text-before-edge" transform="matrix(1 0 0 1 -171.5879113024189 177.7987346395718)">integer</text><text fill="#555" stroke="none" font-family="Roboto, &quot;Helvetica Neue&quot;, Arial, sans-serif" font-size="12px" font-style="normal" font-weight="bold" text-decoration="undefined" x="876.1785120566702" y="63.98174283280915" text-anchor="start" dominant-baseline="text-before-edge" transform="matrix(1 0 0 1 -171.5879113024189 177.7987346395718)">id</text><path fill="none" stroke="#eee" paint-order="fill stroke markers" d=" M 692.5906007542513 256.78047747238094 L 882.1947648777864 256.78047747238094" stroke-miterlimit="10" stroke-dasharray=""/><rect fill="#F8F8F9" stroke="none" x="864.1785120566702" y="78.98174283280915" width="189.60416412353516" height="18" transform="matrix(1 0 0 1 -171.5879113024189 177.7987346395718)"/><text fill="#555" stroke="none" font-family="Roboto, &quot;Helvetica Neue&quot;, Arial, sans-serif" font-size="12px" font-style="normal" font-weight="normal" text-decoration="undefined" x="1007.8868441184377" y="81.98174283280915" text-anchor="start" dominant-baseline="text-before-edge" transform="matrix(1 0 0 1 -171.5879113024189 177.7987346395718)">integer</text><text fill="#555" stroke="none" font-family="Roboto, &quot;Helvetica Neue&quot;, Arial, sans-serif" font-size="12px" font-style="normal" font-weight="normal" text-decoration="undefined" x="876.1785120566702" y="81.98174283280915" text-anchor="start" dominant-baseline="text-before-edge" transform="matrix(1 0 0 1 -171.5879113024189 177.7987346395718)">workspace_id</text><path fill="none" stroke="#eee" paint-order="fill stroke markers" d=" M 692.5906007542513 274.78047747238094 L 882.1947648777864 274.78047747238094" stroke-miterlimit="10" stroke-dasharray=""/><rect fill="#F8F8F9" stroke="none" x="864.1785120566702" y="96.98174283280915" width="189.60416412353516" height="18" transform="matrix(1 0 0 1 -171.5879113024189 177.7987346395718)"/><text fill="#555" stroke="none" font-family="Roboto, &quot;Helvetica Neue&quot;, Arial, sans-serif" font-size="12px" font-style="normal" font-weight="normal" text-decoration="undefined" x="1005.1785082419728" y="99.98174283280915" text-anchor="start" dominant-baseline="text-before-edge" transform="matrix(1 0 0 1 -171.5879113024189 177.7987346395718)">varchar</text><text fill="#555" stroke="none" font-family="Roboto, &quot;Helvetica Neue&quot;, Arial, sans-serif" font-size="12px" font-style="normal" font-weight="normal" text-decoration="undefined" x="876.1785120566702" y="99.98174283280915" text-anchor="start" dominant-baseline="text-before-edge" transform="matrix(1 0 0 1 -171.5879113024189 177.7987346395718)">title</text><path fill="none" stroke="#eee" paint-order="fill stroke markers" d=" M 692.5906007542513 292.78047747238094 L 882.1947648777864 292.78047747238094" stroke-miterlimit="10" stroke-dasharray=""/><rect fill="#F8F8F9" stroke="none" x="864.1785120566702" y="114.98174283280915" width="189.60416412353516" height="18" transform="matrix(1 0 0 1 -171.5879113024189 177.7987346395718)"/><text fill="#555" stroke="none" font-family="Roboto, &quot;Helvetica Neue&quot;, Arial, sans-serif" font-size="12px" font-style="normal" font-weight="normal" text-decoration="undefined" x="1007.8868441184377" y="117.98174283280915" text-anchor="start" dominant-baseline="text-before-edge" transform="matrix(1 0 0 1 -171.5879113024189 177.7987346395718)">integer</text><text fill="#555" stroke="none" font-family="Roboto, &quot;Helvetica Neue&quot;, Arial, sans-serif" font-size="12px" font-style="normal" font-weight="normal" text-decoration="undefined" x="876.1785120566702" y="117.98174283280915" text-anchor="start" dominant-baseline="text-before-edge" transform="matrix(1 0 0 1 -171.5879113024189 177.7987346395718)">position</text><path fill="none" stroke="#eee" paint-order="fill stroke markers" d=" M 692.5906007542513 310.78047747238094 L 882.1947648777864 310.78047747238094" stroke-miterlimit="10" stroke-dasharray=""/><rect fill="#F8F8F9" stroke="none" x="864.1785120566702" y="132.98174283280915" width="189.60416412353516" height="18" transform="matrix(1 0 0 1 -171.5879113024189 177.7987346395718)"/><text fill="#555" stroke="none" font-family="Roboto, &quot;Helvetica Neue&quot;, Arial, sans-serif" font-size="12px" font-style="normal" font-weight="normal" text-decoration="undefined" x="986.4493403037404" y="135.98174283280915" text-anchor="start" dominant-baseline="text-before-edge" transform="matrix(1 0 0 1 -171.5879113024189 177.7987346395718)">timestamp</text><text fill="#555" stroke="none" font-family="Roboto, &quot;Helvetica Neue&quot;, Arial, sans-serif" font-size="12px" font-style="normal" font-weight="normal" text-decoration="undefined" x="876.1785120566702" y="135.98174283280915" text-anchor="start" dominant-baseline="text-before-edge" transform="matrix(1 0 0 1 -171.5879113024189 177.7987346395718)">created_at</text><path fill="none" stroke="#eee" paint-order="fill stroke markers" d=" M 692.5906007542513 328.78047747238094 L 882.1947648777864 328.78047747238094" stroke-miterlimit="10" stroke-dasharray=""/><rect fill="#F8F8F9" stroke="none" x="864.1785120566702" y="150.98174283280915" width="189.60416412353516" height="18" transform="matrix(1 0 0 1 -171.5879113024189 177.7987346395718)"/><text fill="#555" stroke="none" font-family="Roboto, &quot;Helvetica Neue&quot;, Arial, sans-serif" font-size="12px" font-style="normal" font-weight="normal" text-decoration="undefined" x="986.4493403037404" y="153.98174283280915" text-anchor="start" dominant-baseline="text-before-edge" transform="matrix(1 0 0 1 -171.5879113024189 177.7987346395718)">timestamp</text><text fill="#555" stroke="none" font-family="Roboto, &quot;Helvetica Neue&quot;, Arial, sans-serif" font-size="12px" font-style="normal" font-weight="normal" text-decoration="undefined" x="876.1785120566702" y="153.98174283280915" text-anchor="start" dominant-baseline="text-before-edge" transform="matrix(1 0 0 1 -171.5879113024189 177.7987346395718)">updated_at</text><path fill="none" stroke="#eee" paint-order="fill stroke markers" d=" M 692.5906007542513 346.78047747238094 L 882.1947648777864 346.78047747238094" stroke-miterlimit="10" stroke-dasharray=""/><rect fill="#fff" stroke="none" x="555.0714745954521" y="201.05894727504244" width="189.60416412353516" height="174" transform="matrix(1 0 0 1 -171.5879113024189 177.7987346395718)"/><rect fill="#3382C9" stroke="none" x="555.0714745954521" y="201.05894727504244" width="189.60416412353516" height="30" transform="matrix(1 0 0 1 -171.5879113024189 177.7987346395718)"/><text fill="#fff" stroke="none" font-family="Roboto, &quot;Helvetica Neue&quot;, Arial, sans-serif" font-size="12px" font-style="normal" font-weight="bold" text-decoration="undefined" x="567.0714745954521" y="210.05894727504244" text-anchor="start" dominant-baseline="text-before-edge" transform="matrix(1 0 0 1 -171.5879113024189 177.7987346395718)">tasks</text><rect fill="#F8F8F9" stroke="none" x="555.0714745954521" y="231.05894727504244" width="189.60416412353516" height="18" transform="matrix(1 0 0 1 -171.5879113024189 177.7987346395718)"/><text fill="#555" stroke="none" font-family="Roboto, &quot;Helvetica Neue&quot;, Arial, sans-serif" font-size="12px" font-style="normal" font-weight="bold" text-decoration="undefined" x="696.8006387189872" y="234.05894727504244" text-anchor="start" dominant-baseline="text-before-edge" transform="matrix(1 0 0 1 -171.5879113024189 177.7987346395718)">integer</text><text fill="#555" stroke="none" font-family="Roboto, &quot;Helvetica Neue&quot;, Arial, sans-serif" font-size="12px" font-style="normal" font-weight="bold" text-decoration="undefined" x="567.0714745954521" y="234.05894727504244" text-anchor="start" dominant-baseline="text-before-edge" transform="matrix(1 0 0 1 -171.5879113024189 177.7987346395718)">id</text><path fill="none" stroke="#eee" paint-order="fill stroke markers" d=" M 383.48356329303317 426.8576819146142 L 573.0877274165683 426.8576819146142" stroke-miterlimit="10" stroke-dasharray=""/><rect fill="#F8F8F9" stroke="none" x="555.0714745954521" y="249.05894727504244" width="189.60416412353516" height="18" transform="matrix(1 0 0 1 -171.5879113024189 177.7987346395718)"/><text fill="#555" stroke="none" font-family="Roboto, &quot;Helvetica Neue&quot;, Arial, sans-serif" font-size="12px" font-style="normal" font-weight="normal" text-decoration="undefined" x="698.7798066572196" y="252.05894727504244" text-anchor="start" dominant-baseline="text-before-edge" transform="matrix(1 0 0 1 -171.5879113024189 177.7987346395718)">integer</text><text fill="#555" stroke="none" font-family="Roboto, &quot;Helvetica Neue&quot;, Arial, sans-serif" font-size="12px" font-style="normal" font-weight="normal" text-decoration="undefined" x="567.0714745954521" y="252.05894727504244" text-anchor="start" dominant-baseline="text-before-edge" transform="matrix(1 0 0 1 -171.5879113024189 177.7987346395718)">column_id</text><path fill="none" stroke="#eee" paint-order="fill stroke markers" d=" M 383.48356329303317 444.8576819146142 L 573.0877274165683 444.8576819146142" stroke-miterlimit="10" stroke-dasharray=""/><rect fill="#F8F8F9" stroke="none" x="555.0714745954521" y="267.05894727504244" width="189.60416412353516" height="18" transform="matrix(1 0 0 1 -171.5879113024189 177.7987346395718)"/><text fill="#555" stroke="none" font-family="Roboto, &quot;Helvetica Neue&quot;, Arial, sans-serif" font-size="12px" font-style="normal" font-weight="normal" text-decoration="undefined" x="696.0714707807548" y="270.05894727504244" text-anchor="start" dominant-baseline="text-before-edge" transform="matrix(1 0 0 1 -171.5879113024189 177.7987346395718)">varchar</text><text fill="#555" stroke="none" font-family="Roboto, &quot;Helvetica Neue&quot;, Arial, sans-serif" font-size="12px" font-style="normal" font-weight="normal" text-decoration="undefined" x="567.0714745954521" y="270.05894727504244" text-anchor="start" dominant-baseline="text-before-edge" transform="matrix(1 0 0 1 -171.5879113024189 177.7987346395718)">title</text><path fill="none" stroke="#eee" paint-order="fill stroke markers" d=" M 383.48356329303317 462.8576819146142 L 573.0877274165683 462.8576819146142" stroke-miterlimit="10" stroke-dasharray=""/><rect fill="#F8F8F9" stroke="none" x="555.0714745954521" y="285.05894727504244" width="189.60416412353516" height="18" transform="matrix(1 0 0 1 -171.5879113024189 177.7987346395718)"/><text fill="#555" stroke="none" font-family="Roboto, &quot;Helvetica Neue&quot;, Arial, sans-serif" font-size="12px" font-style="normal" font-weight="normal" text-decoration="undefined" x="698.7798066572196" y="288.05894727504244" text-anchor="start" dominant-baseline="text-before-edge" transform="matrix(1 0 0 1 -171.5879113024189 177.7987346395718)">integer</text><text fill="#555" stroke="none" font-family="Roboto, &quot;Helvetica Neue&quot;, Arial, sans-serif" font-size="12px" font-style="normal" font-weight="normal" text-decoration="undefined" x="567.0714745954521" y="288.05894727504244" text-anchor="start" dominant-baseline="text-before-edge" transform="matrix(1 0 0 1 -171.5879113024189 177.7987346395718)">description</text><path fill="none" stroke="#eee" paint-order="fill stroke markers" d=" M 383.48356329303317 480.8576819146142 L 573.0877274165683 480.8576819146142" stroke-miterlimit="10" stroke-dasharray=""/><rect fill="#F8F8F9" stroke="none" x="555.0714745954521" y="303.05894727504244" width="189.60416412353516" height="18" transform="matrix(1 0 0 1 -171.5879113024189 177.7987346395718)"/><text fill="#555" stroke="none" font-family="Roboto, &quot;Helvetica Neue&quot;, Arial, sans-serif" font-size="12px" font-style="normal" font-weight="normal" text-decoration="undefined" x="703.0298066572196" y="306.05894727504244" text-anchor="start" dominant-baseline="text-before-edge" transform="matrix(1 0 0 1 -171.5879113024189 177.7987346395718)">binary</text><text fill="#555" stroke="none" font-family="Roboto, &quot;Helvetica Neue&quot;, Arial, sans-serif" font-size="12px" font-style="normal" font-weight="normal" text-decoration="undefined" x="567.0714745954521" y="306.05894727504244" text-anchor="start" dominant-baseline="text-before-edge" transform="matrix(1 0 0 1 -171.5879113024189 177.7987346395718)">tags</text><path fill="none" stroke="#eee" paint-order="fill stroke markers" d=" M 383.48356329303317 498.8576819146142 L 573.0877274165683 498.8576819146142" stroke-miterlimit="10" stroke-dasharray=""/><rect fill="#F8F8F9" stroke="none" x="555.0714745954521" y="321.05894727504244" width="189.60416412353516" height="18" transform="matrix(1 0 0 1 -171.5879113024189 177.7987346395718)"/><text fill="#555" stroke="none" font-family="Roboto, &quot;Helvetica Neue&quot;, Arial, sans-serif" font-size="12px" font-style="normal" font-weight="normal" text-decoration="undefined" x="698.7798066572196" y="324.05894727504244" text-anchor="start" dominant-baseline="text-before-edge" transform="matrix(1 0 0 1 -171.5879113024189 177.7987346395718)">integer</text><text fill="#555" stroke="none" font-family="Roboto, &quot;Helvetica Neue&quot;, Arial, sans-serif" font-size="12px" font-style="normal" font-weight="normal" text-decoration="undefined" x="567.0714745954521" y="324.05894727504244" text-anchor="start" dominant-baseline="text-before-edge" transform="matrix(1 0 0 1 -171.5879113024189 177.7987346395718)">assigned_to</text><path fill="none" stroke="#eee" paint-order="fill stroke markers" d=" M 383.48356329303317 516.8576819146142 L 573.0877274165683 516.8576819146142" stroke-miterlimit="10" stroke-dasharray=""/><rect fill="#F8F8F9" stroke="none" x="555.0714745954521" y="339.05894727504244" width="189.60416412353516" height="18" transform="matrix(1 0 0 1 -171.5879113024189 177.7987346395718)"/><text fill="#555" stroke="none" font-family="Roboto, &quot;Helvetica Neue&quot;, Arial, sans-serif" font-size="12px" font-style="normal" font-weight="normal" text-decoration="undefined" x="677.3423028425224" y="342.05894727504244" text-anchor="start" dominant-baseline="text-before-edge" transform="matrix(1 0 0 1 -171.5879113024189 177.7987346395718)">timestamp</text><text fill="#555" stroke="none" font-family="Roboto, &quot;Helvetica Neue&quot;, Arial, sans-serif" font-size="12px" font-style="normal" font-weight="normal" text-decoration="undefined" x="567.0714745954521" y="342.05894727504244" text-anchor="start" dominant-baseline="text-before-edge" transform="matrix(1 0 0 1 -171.5879113024189 177.7987346395718)">created_at</text><path fill="none" stroke="#eee" paint-order="fill stroke markers" d=" M 383.48356329303317 534.8576819146142 L 573.0877274165683 534.8576819146142" stroke-miterlimit="10" stroke-dasharray=""/><rect fill="#F8F8F9" stroke="none" x="555.0714745954521" y="357.05894727504244" width="189.60416412353516" height="18" transform="matrix(1 0 0 1 -171.5879113024189 177.7987346395718)"/><text fill="#555" stroke="none" font-family="Roboto, &quot;Helvetica Neue&quot;, Arial, sans-serif" font-size="12px" font-style="normal" font-weight="normal" text-decoration="undefined" x="677.3423028425224" y="360.05894727504244" text-anchor="start" dominant-baseline="text-before-edge" transform="matrix(1 0 0 1 -171.5879113024189 177.7987346395718)">timestamp</text><text fill="#555" stroke="none" font-family="Roboto, &quot;Helvetica Neue&quot;, Arial, sans-serif" font-size="12px" font-style="normal" font-weight="normal" text-decoration="undefined" x="567.0714745954521" y="360.05894727504244" text-anchor="start" dominant-baseline="text-before-edge" transform="matrix(1 0 0 1 -171.5879113024189 177.7987346395718)">updated_at</text><path fill="none" stroke="#eee" paint-order="fill stroke markers" d=" M 383.48356329303317 552.8576819146142 L 573.0877274165683 552.8576819146142" stroke-miterlimit="10" stroke-dasharray=""/></g><g><text fill="rgb(0,0,0)" stroke="none" font-family="Roboto, &quot;Helvetica Neue&quot;, Arial, sans-serif" font-size="12px" font-style="italic" font-weight="normal" text-decoration="undefined" x="10" y="602.8576819146142" text-anchor="start" dominant-baseline="text-after-edge" transform="matrix(1 0 0 1 0 0)" fill-opacity="0.35">Generated with app.erdlab.io</text></g></g></svg>